<svg width="234" height="69" viewBox="0 0 234 69" fill="none" xmlns="http://www.w3.org/2000/svg">
<path d="M47.0162 68.9628C46.8574 66.3421 47.5235 63.7548 47.3206 61.1305C47.2752 60.5442 47.3981 59.9352 47.0054 59.4148C47.2095 58.7219 47.8601 58.6224 48.3913 58.409C63.1018 52.4936 77.8087 46.5723 92.5155 40.6486C93.1243 40.404 93.7487 40.3404 94.373 40.223C94.9353 39.8273 94.7275 39.2291 94.7287 38.7123C94.7443 34.286 94.7335 29.8597 94.7419 25.4334C94.7419 24.7824 94.8111 24.1266 94.1319 23.7298C96.4776 22.2635 99.1229 21.4351 101.583 20.2086C102.722 19.6415 103.884 19.0912 105.089 18.6584C105.776 19.1668 105.77 19.9221 105.771 20.6582C105.777 28.451 105.765 36.2426 105.788 44.0354C105.79 44.8387 105.571 45.2727 104.774 45.5916C90.5292 51.2935 76.2974 57.0266 62.0656 62.7622C57.3826 64.6492 52.7091 66.5567 48.0356 68.4677C47.7718 68.5756 47.5533 68.795 47.3134 68.9628H47.015H47.0162Z" fill="#D6D7E8"/>
<path d="M105.089 18.6583C105.014 18.9724 104.815 19.1259 104.514 19.2614C101.337 20.6988 98.1739 22.1651 94.9973 23.6038C94.7418 23.7201 94.4219 23.6913 94.1318 23.7297C84.7144 19.9136 75.297 16.0951 65.8784 12.2814C60.0912 9.93757 54.3003 7.60213 48.5155 5.2535C48.1609 5.10963 47.7121 5.09524 47.5235 4.65165C51.0737 3.0787 54.853 2.05365 58.3495 0.318848H59.2448C63.1985 2.24547 67.3551 3.67575 71.4233 5.31824C82.4356 9.76493 93.4813 14.1241 104.515 18.5145C104.696 18.5864 104.897 18.6116 105.089 18.6583Z" fill="white"/>
<path d="M181.243 61.3582C181.613 61.8101 181.974 62.1374 181.705 62.5714C181.619 62.7093 181.042 62.7477 180.916 62.6146C180.517 62.1962 180.986 61.8737 181.243 61.3582Z" fill="white"/>
<path d="M148.692 60.296C147.595 60.3187 146.98 61.0129 147.012 62.1351C147.041 63.1853 147.664 63.8207 148.681 63.8399C149.788 63.8627 150.368 63.1757 150.475 62.0032C150.363 60.9793 149.795 60.272 148.692 60.296ZM148.692 60.296C147.595 60.3187 146.98 61.0129 147.012 62.1351C147.041 63.1853 147.664 63.8207 148.681 63.8399C149.788 63.8627 150.368 63.1757 150.475 62.0032C150.363 60.9793 149.795 60.272 148.692 60.296ZM191.056 56.9427C170.93 56.9834 150.805 56.9714 130.678 56.9738C130.232 56.9738 129.785 57.005 129.34 57.0206C128.568 60.1857 128.568 63.3508 129.34 66.5146C150.111 66.5314 170.882 66.5422 191.653 66.583C192.528 66.5854 192.589 66.2065 192.581 65.5136C192.551 63.1661 192.488 60.8151 192.602 58.4736C192.664 57.2004 192.279 56.9391 191.056 56.9427ZM142.581 64.0113C142.209 64.9141 139.113 65.5915 138.396 64.9369C138.091 64.6587 138.244 64.2799 138.231 63.9478C138.206 63.3004 138.224 62.6506 138.224 62.0008C138.224 61.6016 138.163 61.1903 138.238 60.8055C138.35 60.2312 137.789 59.2949 138.654 59.145C139.632 58.9748 140.751 58.7542 141.656 59.5143C141.869 59.6941 142.167 60.1197 142.096 60.242C141.289 61.6447 143.13 62.6806 142.581 64.0113ZM148.726 65.0676C146.859 65.0712 145.55 63.8579 145.529 62.1075C145.509 60.3847 146.846 59.0899 148.667 59.0671C150.59 59.0443 151.969 60.3259 151.945 62.1147C151.922 63.8411 150.589 65.064 148.726 65.0676ZM157.806 65.0532C157.41 65.0592 157.013 65.0544 156.474 65.0544C155.101 65.4512 154.865 64.6456 154.96 63.3723C155.045 62.2334 154.985 61.0836 154.976 59.9387C154.971 59.4579 154.98 59.0719 155.649 59.0527C156.341 59.0323 156.49 59.344 156.461 59.9507C156.426 60.6448 156.45 61.3438 156.453 62.0404C156.458 62.9791 156.132 64.1516 157.802 63.8855C158.176 63.8255 158.281 64.124 158.285 64.4657C158.289 64.811 158.19 65.0472 157.806 65.0532ZM162.657 64.2991C162.667 64.8721 162.463 65.0879 161.883 65.0868C161.246 65.0856 161.16 64.7451 161.172 64.2343C161.191 63.4886 161.177 62.7429 161.177 61.9972C161.177 61.3018 161.19 60.6065 161.173 59.9111C161.162 59.4076 161.227 59.0479 161.873 59.0491C162.442 59.0491 162.668 59.2445 162.657 59.8272C162.633 61.3174 162.635 62.8089 162.657 64.2991ZM168.928 64.6408C168.585 65.3997 167.702 65.2306 167.328 64.3542C166.612 62.6674 165.936 60.9626 165.147 59.0311C167.891 59.0755 166.933 61.797 168.215 62.6722C169.377 61.7119 168.538 59.1402 171.239 59.0215C170.421 61.0321 169.731 62.8628 168.928 64.6408ZM175.48 59.8931C175.464 60.6389 175.476 61.3846 175.476 62.1303C175.474 62.8748 175.461 63.6205 175.479 64.3662C175.49 64.859 175.301 65.076 174.789 65.0843C174.231 65.0951 173.987 64.9057 173.997 64.3159C174.02 62.8256 174.018 61.3342 173.997 59.844C173.988 59.2793 174.185 59.0527 174.764 59.0479C175.399 59.0431 175.492 59.3812 175.48 59.8931ZM181.298 63.744C179.974 63.7392 179.783 65.8289 178.259 64.8757C178.98 63.1721 179.719 61.4409 180.442 59.7013C180.61 59.2961 180.814 59.0467 181.306 59.0575C181.814 59.0695 181.972 59.3896 182.137 59.7697C182.867 61.4601 183.606 63.1469 184.368 64.8913C182.828 65.7929 182.624 63.75 181.298 63.744ZM148.692 60.296C147.595 60.3187 146.98 61.0129 147.012 62.1351C147.041 63.1853 147.664 63.8207 148.681 63.8399C149.788 63.8627 150.368 63.1757 150.475 62.0032C150.363 60.9793 149.795 60.272 148.692 60.296ZM140.253 62.3761C139.494 62.3437 139.773 62.9383 139.714 63.31C139.66 63.8087 139.68 64.2571 140.361 64.154C140.843 64.0809 141.212 63.8303 141.199 63.2944C141.184 62.7117 140.829 62.4 140.253 62.3761ZM140.108 61.4085C140.457 61.369 140.694 61.0645 140.684 60.6712C140.675 60.2696 140.425 60.0262 140.048 60.0202C139.587 60.0154 139.758 60.4219 139.684 60.7468C139.822 60.935 139.524 61.4733 140.108 61.4085Z" fill="white"/>
<path d="M129.34 57.0217C129.34 60.1868 129.34 63.3507 129.34 66.5158C126.456 66.5158 123.571 66.5158 120.687 66.5158C119.92 63.3507 119.92 60.1868 120.687 57.0217C123.571 57.0217 126.455 57.0217 129.34 57.0217Z" fill="#D6D7E8"/>
<path d="M120.687 57.0217C120.687 60.1868 120.687 63.3507 120.687 66.5158C118.106 66.5326 115.525 66.5266 112.945 66.5793C112.235 66.5937 112.012 66.3851 112.022 65.661C112.062 63.0666 112.062 60.471 112.022 57.8766C112.012 57.1524 112.234 56.9438 112.945 56.9582C115.525 57.0122 118.106 57.0062 120.687 57.0217Z" fill="white"/>
<path d="M164.555 33.8953C163.356 34.2082 162.171 34.5331 160.897 34.261C159.642 33.9924 158.976 33.2971 158.971 31.9999C158.965 30.602 158.935 29.2016 158.978 27.8049C159.014 26.6516 159.232 25.4383 157.154 25.5738C158.722 24.9875 159.189 23.99 159.413 22.6077C159.532 21.8704 160.732 22.115 161.415 22.1246C162.008 22.133 161.785 22.8667 161.74 23.2467C161.596 24.4708 162.01 24.8616 163.28 24.8557C165.07 24.8473 166.831 25.1434 168.64 24.6746C169.983 24.3269 169.027 25.6781 169.531 26.1445C170.054 26.1936 170.135 25.551 170.456 25.2429C171.404 24.3317 172.559 24.1615 173.634 24.6398C174.499 25.0259 173.909 26.0677 174.025 26.8063C174.066 27.0628 174.155 27.4309 173.757 27.5532C173.438 27.6503 173.171 27.5472 172.986 27.263C172.341 26.2667 171.471 26.3279 170.494 26.6732C169.414 27.0556 169.554 27.9332 169.563 28.7784C169.571 29.4774 169.582 30.1775 169.561 30.8765C169.522 32.1689 169.232 33.5848 171.471 33.6507C171.364 33.8246 171.258 33.9984 171.152 34.1735H165.38C165.258 33.9313 165.238 33.6567 165.428 33.4781C167.346 31.669 166.265 29.3803 166.409 27.2918C166.43 26.9969 166.219 26.7379 165.957 26.5605C164.946 25.8759 163.827 26.0677 162.812 26.3806C161.977 26.6384 162.333 27.5675 162.274 28.2221C162.231 28.7149 162.265 29.2148 162.266 29.7112C162.267 31.2561 162.997 32.2372 164.457 32.6545C164.789 32.7492 165.159 32.8151 165.224 33.2419C165.301 33.7514 164.774 33.6687 164.557 33.8941L164.555 33.8953Z" fill="white"/>
<path d="M144.374 6.59373C147.248 5.82963 148.819 5.88958 149.089 6.77356C149.503 6.48942 149.885 6.17411 150.313 5.94273C152.691 4.65991 155.089 5.94393 155.281 8.62585C155.356 9.66889 155.294 10.7215 155.305 11.7694C155.317 13.0018 154.915 14.3889 156.496 15.1766H151.182C151.363 14.311 152.586 14.5987 152.54 13.6768C152.447 11.7909 152.857 9.8703 152.29 8.02521C151.966 6.97258 150.987 7.11524 150.142 7.20876C149.32 7.29987 148.942 7.77464 148.976 8.63185C149.015 9.67848 148.977 10.7275 148.985 11.7753C148.996 13.0054 148.591 14.3901 150.16 15.1826H144.861C147.038 14.2283 146.204 12.3256 146.19 10.8042C146.175 9.32001 147.044 7.41976 144.375 6.59253L144.374 6.59373Z" fill="white"/>
<path d="M124.474 52.0344H119.165C121.064 51.4254 120.552 49.9052 120.579 48.6284C120.595 47.8803 120.583 47.1309 120.582 46.3828C120.582 45.1184 120.111 44.1705 119.169 43.5391C121.139 42.4229 123.059 42.4289 123.426 43.653C124.242 43.1015 124.989 42.4756 126.024 42.4061C128.174 42.261 129.467 43.2837 129.623 45.4453C129.705 46.5878 129.666 47.74 129.647 48.8873C129.627 50.067 129.437 51.2971 130.873 52.0248H125.545C128.001 50.0203 126.747 47.4259 126.67 45.0868C126.631 43.9167 125.458 43.9814 124.542 44.0726C123.632 44.1625 123.282 44.6924 123.321 45.6024C123.368 46.6981 123.34 47.7975 123.33 48.8957C123.318 50.061 123.088 51.3055 124.473 52.0368L124.474 52.0344Z" fill="white"/>
<path d="M135.735 33.8531C137.557 33.4742 137.305 32.135 137.287 30.9014C137.275 30.1029 137.27 29.3045 137.288 28.506C137.317 27.2663 137.524 25.9523 135.65 25.6226C138.268 24.3554 139.751 24.3854 140.136 25.6526C140.549 25.3709 140.93 25.0628 141.351 24.8326C143.721 23.5414 146.134 24.8206 146.332 27.4953C146.409 28.5384 146.354 29.5898 146.354 30.6388C146.356 32.0431 146.802 33.1817 147.691 34.0545H142.242C142.4 33.1937 143.633 33.4862 143.591 32.5762C143.503 30.6904 143.904 28.7697 143.347 26.9234C143.029 25.866 142.055 26.0003 141.208 26.0914C140.39 26.1801 139.997 26.6381 140.028 27.5025C140.067 28.5995 140.024 29.6989 140.038 30.7959C140.055 31.9792 139.64 33.3351 141.56 33.8267C140.134 34.2595 137.417 34.2978 135.735 33.8531Z" fill="white"/>
<path d="M227.077 34.0486H221.768C223.667 33.4395 223.155 31.9193 223.182 30.6425C223.198 29.8944 223.186 29.1451 223.185 28.397C223.185 27.1326 222.714 26.1846 221.772 25.5532C223.742 24.437 225.662 24.443 226.029 25.6671C226.845 25.1156 227.592 24.4898 228.627 24.4203C230.777 24.2752 232.07 25.2979 232.226 27.4595C232.308 28.602 232.269 29.7541 232.25 30.9015C232.23 32.0812 232.04 33.3113 233.475 34.039H228.148C230.604 32.0356 229.35 29.44 229.273 27.101C229.235 25.9309 228.061 25.9956 227.146 26.0855C226.235 26.1754 225.886 26.7054 225.924 27.6153C225.971 28.7615 225.974 29.9124 225.924 31.0585C225.873 32.2191 225.801 33.3448 227.077 34.051V34.0486Z" fill="white"/>
<path d="M168.844 43.3532C170.041 43.1027 171.233 42.8329 172.434 42.6063C173.137 42.4744 173.094 43.002 173.094 43.4587C173.094 45.1576 173.151 46.8576 173.076 48.5528C173.02 49.8332 173.076 50.9446 175.059 51.1736C173.532 51.9217 172.268 52.0308 171.046 52.243C170.026 52.4193 170.686 51.4338 170.273 51.0573C169.324 51.9289 168.207 52.4852 166.832 52.3437C165.257 52.1807 164.364 51.4146 164.173 49.8273C164.042 48.7423 164.053 47.6369 164.043 46.5399C164.024 44.5473 164.038 44.5473 162.5 43.3233C163.837 43.0559 165.009 42.7993 166.191 42.5955C166.903 42.4732 166.828 43.0295 166.831 43.4707C166.839 45.2187 166.834 46.9679 166.845 48.7159C166.852 49.9064 167.202 50.76 168.633 50.7312C170.09 50.7024 170.528 49.9376 170.402 48.6032C170.341 47.9594 170.368 47.3048 170.398 46.6562C170.458 45.3362 170.628 43.9767 168.643 43.7165C168.711 43.5954 168.779 43.4755 168.846 43.3544L168.844 43.3532Z" fill="white"/>
<path d="M180.765 25.3745C181.959 25.1227 183.15 24.8566 184.348 24.6228C185.041 24.4873 185.028 24.9837 185.028 25.4548C185.026 27.1525 185.078 28.8525 185.011 30.5477C184.961 31.8198 184.961 32.9671 186.999 33.1673C185.433 33.9586 184.123 34.0977 182.852 34.2619C181.966 34.377 182.676 33.4311 182.165 33.1277C181.356 33.7296 180.462 34.3998 179.235 34.3794C177.285 34.347 176.272 33.5318 176.069 31.5692C175.962 30.5297 175.936 29.4735 175.984 28.4305C176.042 27.1968 176.064 26.0411 174.293 25.5519C175.708 24.8746 176.95 24.8925 178.111 24.6168C178.81 24.4513 178.761 25.0244 178.762 25.4728C178.768 27.2208 178.762 28.9688 178.775 30.7168C178.784 31.8989 179.113 32.7705 180.55 32.7465C181.995 32.7225 182.46 31.9816 182.335 30.634C182.27 29.9411 182.324 29.2373 182.323 28.5372C182.321 27.2987 182.675 25.8672 180.407 25.8445C180.526 25.6874 180.646 25.5316 180.766 25.3745H180.765Z" fill="white"/>
<path d="M111.948 27.8058C111.958 22.8484 115.448 19.814 119.992 20.4662C120.336 20.5154 120.675 20.5957 121.018 20.6484C123.484 21.0213 123.527 21.0717 123.33 23.533C123.307 23.8111 123.438 24.1816 123.062 24.3003C122.591 24.4477 122.453 24.0473 122.36 23.7236C121.926 22.219 120.71 21.8342 119.394 21.6423C117.779 21.4061 116.537 22.0152 115.841 23.4994C114.72 25.8876 114.698 28.3597 115.821 30.7359C116.942 33.1086 120.121 33.69 122.538 32.1183C122.926 31.8665 123.381 31.0381 123.838 31.701C124.258 32.3113 123.541 32.7129 123.031 33.0486C118.626 35.9487 113.418 34.3434 112.2 29.6785C112.014 28.9628 112 28.2015 111.95 27.8046L111.948 27.8058Z" fill="white"/>
<path d="M111.612 15.0881C111.65 14.5725 112.081 14.5354 112.371 14.4802C113.098 14.3436 113.345 13.9503 113.34 13.2322C113.319 10.0851 113.266 6.93559 113.358 3.79208C113.399 2.39897 112.073 2.81259 111.443 1.98535H118.013C117.908 2.61477 117.4 2.54404 117.077 2.63156C116.417 2.81019 116.24 3.20103 116.243 3.83644C116.261 6.98354 116.267 10.1306 116.24 13.2777C116.234 13.9959 116.487 14.2776 117.193 14.2333C117.737 14.1985 118.286 14.2273 118.833 14.2273C121.346 14.2273 121.337 14.2237 122.274 11.9206C122.39 11.6376 122.339 11.1197 122.835 11.1749C123.351 11.2324 123.161 11.706 123.182 12.0165C123.329 14.2097 122.316 15.3063 120.142 15.3063C117.756 15.3063 115.371 15.3195 112.985 15.2943C112.529 15.2895 112.006 15.5065 111.611 15.0869L111.612 15.0881Z" fill="white"/>
<path d="M129.977 24.4214C126.877 24.419 124.844 26.366 124.823 29.3572C124.801 32.4828 126.689 34.413 129.788 34.4334C132.933 34.4549 135.027 32.4516 135.038 29.4088C135.048 26.336 133.109 24.425 129.977 24.4214ZM131.587 32.382C131.268 33.0055 130.771 33.4275 130.081 33.4551C129.336 33.485 128.718 33.1302 128.402 32.4276C127.52 30.4674 127.548 28.4629 128.27 26.4739C128.502 25.8361 129.036 25.4333 129.763 25.4117C130.535 25.3877 131.08 25.757 131.452 26.4223C132.007 27.4186 132.063 28.5096 132.07 29.6114C132.057 30.5609 132.033 31.5081 131.587 32.382Z" fill="white"/>
<path d="M215.632 24.4214C212.522 24.3974 210.464 26.3264 210.426 29.3045C210.385 32.4432 212.248 34.389 215.337 34.4333C218.485 34.4789 220.606 32.4899 220.64 29.4615C220.673 26.3792 218.754 24.4465 215.632 24.4214ZM217.15 32.4396C216.385 33.7847 214.764 33.8627 214.063 32.4875C213.065 30.5273 213.059 28.4221 213.92 26.4211C214.517 25.0352 216.204 25.0508 217.009 26.3552C217.61 27.3251 217.664 28.4269 217.673 29.531C217.659 30.5297 217.662 31.5356 217.15 32.4396Z" fill="white"/>
<path d="M144.444 14.3015C144.369 14.0665 144.138 14.0665 143.953 14.0965C142.57 14.3183 142.521 13.4299 142.576 12.4468C142.607 11.9001 142.633 11.3522 142.673 10.6017C142.673 10.5561 142.672 10.3068 142.673 10.0562C142.68 8.61154 142.89 7.04458 141.335 6.20536C139.302 5.10957 137.189 5.4045 135.148 6.20416C134.185 6.58061 134.934 7.36469 135.062 7.87302C135.208 8.45688 135.699 8.06484 136.011 7.86103C136.764 7.36948 137.53 6.89712 138.427 6.74126C139.563 6.54225 139.905 7.21962 139.97 8.2135C140.03 9.09589 140.031 9.81163 138.784 9.627C137.888 9.49512 137.015 9.77327 136.183 10.1233C134.374 10.8846 133.597 12.3785 134.212 13.9023C134.798 15.3529 136.757 15.9344 138.441 15.1383C138.751 14.9921 139.034 14.7798 139.307 14.5676C139.6 14.3387 139.721 14.1936 140.092 14.6228C141.002 15.673 143.044 15.7462 144.147 14.9141C144.36 14.7547 144.535 14.582 144.444 14.3015ZM139.919 11.7802C139.809 13.5018 139.265 14.1984 138.175 14.0377C137.244 13.8999 136.814 13.28 136.841 12.3593C136.874 11.2551 138.017 10.3931 139.273 10.4614C140.447 10.5262 139.813 11.3702 139.919 11.7802Z" fill="white"/>
<path d="M131.963 13.6399C129.535 14.4995 127.634 13.8736 127.005 11.929C126.514 10.4124 126.652 10.2158 128.211 10.211C128.805 10.2086 129.4 10.211 129.994 10.211C130.392 10.211 130.793 10.253 131.183 10.2014C131.843 10.1151 132.782 10.5911 133.11 9.92208C133.537 9.05049 133.143 8.07099 132.606 7.24735C132.275 6.73902 131.824 6.35777 131.289 6.06884C129.619 5.16487 127.209 5.41304 125.692 6.6539C124.158 7.90674 123.521 10.1619 124.117 12.224C124.67 14.1374 126.094 15.2536 128.287 15.4586C129.712 15.5917 131.042 15.262 132.259 14.5043C132.661 14.2537 133.389 14.0355 133.16 13.496C132.838 12.7395 132.326 13.5128 131.963 13.6411V13.6399ZM128.797 6.52442C130.141 6.57597 130.336 7.64658 130.382 8.62488C130.454 10.1019 129.214 9.11163 128.646 9.51925C128.115 9.08885 127.04 10.0887 126.914 8.76874C126.807 7.63699 127.789 6.48605 128.797 6.52442Z" fill="white"/>
<path d="M190.732 50.4928C188.24 51.4052 186.351 50.7134 185.72 48.6741C185.349 47.474 185.565 46.8805 186.955 47.0676C187.538 47.1467 188.142 47.0807 188.737 47.0807C189.431 47.0807 190.132 47.0136 190.816 47.0963C191.884 47.2234 192.084 46.7031 191.989 45.7955C191.765 43.6963 189.939 42.3139 187.475 42.4111C184.614 42.5238 182.657 44.6446 182.688 47.6011C182.718 50.4868 184.519 52.2768 187.474 52.3511C188.798 52.3835 190.02 52.0238 191.132 51.3081C191.526 51.0551 192.225 50.8141 191.886 50.2494C191.591 49.7579 191.105 50.3573 190.732 50.4928ZM185.694 45.5222C185.773 44.424 186.236 43.4409 187.529 43.4097C188.877 43.3762 189.093 44.4875 189.137 45.4682C189.21 47.0915 187.825 45.8219 187.376 46.4549C186.776 45.9922 185.594 46.9225 185.694 45.5222Z" fill="white"/>
<path d="M118.233 52.0547H111.916C111.948 51.8653 111.951 51.6998 111.982 51.695C113.673 51.3797 113.709 50.1808 113.653 48.7937C113.566 46.6513 113.645 44.5017 113.626 42.3556C113.613 40.9469 114.202 39.2121 111.438 39.1738C111.6 39.0515 111.762 38.9304 111.925 38.8081H118.251C115.883 39.4879 116.581 41.3845 116.559 42.9443C116.528 45.0903 116.61 47.2399 116.526 49.3824C116.481 50.5321 116.684 51.3318 117.963 51.5092C118.152 51.5356 118.316 51.6818 118.233 52.0559V52.0547Z" fill="white"/>
<path d="M153.529 24.4215C153.702 24.4371 154.147 24.4683 154.59 24.521C156.028 24.6949 156.729 25.8734 156.228 27.2389C156.149 27.4535 156.051 27.5698 155.822 27.577C155.453 27.5878 155.317 27.3468 155.206 27.0471C154.755 25.8183 153.756 25.5209 152.589 25.4969C151.902 25.4826 151.425 25.7931 151.252 26.4465C151.071 27.131 151.43 27.643 152.026 27.8851C152.896 28.2388 153.815 28.4678 154.7 28.7903C155.835 29.2051 156.773 29.8453 156.763 31.2205C156.752 32.5668 156.005 33.4516 154.811 33.9647C152.982 34.7512 151.126 34.6073 149.28 34.0391C148.688 33.8568 148.274 31.7312 148.75 31.3044C149.182 30.9183 149.465 31.2289 149.625 31.6521C150.227 33.237 151.625 33.2358 152.958 33.3305C153.642 33.3785 154.093 33.0104 154.261 32.3462C154.441 31.6281 154.046 31.1725 153.444 30.9471C152.657 30.6522 151.835 30.458 151.029 30.217C149.671 29.8118 148.718 29.0397 148.742 27.4859C148.765 25.9525 149.749 25.1864 151.057 24.7225C151.767 24.4707 152.509 24.4143 153.53 24.4203L153.529 24.4215Z" fill="white"/>
<path d="M135.588 52.4648C134.762 52.5631 134.005 52.255 133.222 52.1435C132.457 52.0332 132.075 51.6207 132.217 50.8199C132.315 50.2672 131.89 49.4531 132.536 49.2086C133.304 48.916 133.183 49.8824 133.486 50.2636C134.067 50.9937 136.18 51.598 137.075 51.2527C137.596 51.0525 137.849 50.6377 137.893 50.1089C137.941 49.5299 137.585 49.1378 137.105 48.9592C136.319 48.6655 135.496 48.4713 134.689 48.2291C133.347 47.8275 132.363 47.1057 132.333 45.5424C132.306 44.2236 133.189 43.1506 134.726 42.6782C136.141 42.2442 137.58 42.3761 139.006 42.6123C139.659 42.7202 140.247 44.9765 139.722 45.4189C139.221 45.8421 138.948 45.4225 138.771 44.9609C138.323 43.798 137.357 43.5306 136.255 43.4839C135.504 43.4527 134.976 43.7788 134.831 44.5113C134.697 45.1863 135.085 45.6742 135.695 45.9092C136.481 46.2113 137.294 46.4391 138.091 46.7089C139.339 47.1309 140.41 47.7627 140.357 49.2889C140.303 50.8499 139.299 51.7035 137.919 52.1435C137.166 52.3844 136.384 52.5667 135.589 52.466L135.588 52.4648Z" fill="white"/>
<path d="M140.482 43.6601C141.91 42.9215 142.53 42.0919 142.673 40.676C142.759 39.8272 143.942 40.1593 144.616 40.097C145.318 40.0334 145.087 40.7707 145.035 41.1232C144.831 42.5403 145.433 43.0163 146.761 42.8017C147.003 42.7633 147.262 42.7645 147.503 42.8041C147.832 42.858 148.404 42.5966 148.35 43.2608C148.309 43.7764 147.85 43.7572 147.439 43.7895C145.057 43.9802 145.058 43.9874 145.058 46.3792C145.058 47.1764 145.056 47.9737 145.058 48.7698C145.064 50.6364 145.445 50.9985 147.333 51.0129C147.672 51.0153 148.232 50.6712 148.31 51.2694C148.371 51.7346 147.806 51.7898 147.455 51.9372C146.567 52.3089 145.638 52.4276 144.688 52.3221C142.902 52.1243 142.287 51.4349 142.266 49.5994C142.25 48.2542 142.266 46.9091 142.261 45.5639C142.259 44.5365 142.632 43.2093 140.48 43.6589L140.482 43.6601Z" fill="white"/>
<path d="M154.502 43.6554C155.861 42.9216 156.566 42.2047 156.647 40.7852C156.704 39.7841 157.864 40.2373 158.523 40.0982C159.287 39.9376 159.12 40.6569 159.057 41.0094C158.76 42.6567 159.581 43.0092 160.969 42.8006C161.164 42.7718 161.369 42.7742 161.564 42.803C161.873 42.8485 162.353 42.6399 162.408 43.147C162.465 43.6745 162.039 43.7453 161.614 43.7884C160.793 43.8712 159.643 43.3844 159.231 44.0474C158.824 44.702 159.095 45.7846 159.081 46.6802C159.07 47.3288 159.078 47.9774 159.078 48.6248C159.081 50.7228 159.343 50.9722 161.511 50.9974C161.812 51.001 162.278 50.7336 162.346 51.2779C162.389 51.6172 162.014 51.7299 161.745 51.8414C160.572 52.3342 159.367 52.4912 158.107 52.2191C156.917 51.9613 156.298 51.248 156.287 50.0299C156.274 48.5337 156.29 47.0374 156.279 45.5412C156.272 44.5198 156.619 43.201 154.502 43.6542V43.6554Z" fill="white"/>
<path d="M174.603 43.5786C175.817 42.9144 176.558 42.2239 176.626 40.8008C176.675 39.7781 177.833 40.2517 178.489 40.0982C179.259 39.9184 179.103 40.6294 179.043 40.9878C178.768 42.58 179.485 42.9996 180.931 42.8233C181.392 42.767 182.245 42.5188 182.315 43.135C182.418 44.0642 181.509 43.7597 180.985 43.7741C179.065 43.8268 179.064 43.8088 179.064 45.7978C179.064 46.8444 179.059 47.8899 179.064 48.9365C179.074 50.5886 179.515 50.9938 181.204 51.0286C181.584 51.037 182.225 50.6233 182.309 51.2875C182.372 51.7923 181.701 51.8378 181.308 51.9973C180.513 52.3198 179.674 52.4133 178.827 52.3426C176.957 52.1867 176.292 51.4686 176.271 49.5887C176.255 48.2435 176.216 46.896 176.284 45.5544C176.342 44.4095 176.312 43.448 174.604 43.581L174.603 43.5786Z" fill="white"/>
<path d="M203.33 33.8951C202.184 34.1852 201.056 34.5113 199.835 34.2931C198.454 34.0461 197.726 33.3244 197.739 31.8845C197.752 30.4435 197.689 28.9988 197.757 27.5601C197.811 26.4164 197.779 25.4597 196.007 25.6047C197.497 24.9861 197.969 23.9359 198.204 22.5524C198.314 21.9026 199.44 22.1447 200.092 22.1064C200.801 22.0656 200.463 22.7586 200.527 23.1398C200.609 23.6206 200.421 24.1349 200.689 24.5977C201.497 24.9202 202.338 24.6768 203.162 24.7511C203.493 24.7811 203.912 24.672 203.993 25.1468C204.074 25.6215 203.722 25.8517 203.354 26.0303C203.222 26.0939 203.073 26.1167 202.929 26.1514C201.681 26.4512 201.056 27.2316 201.054 28.4929C201.054 28.8885 201.054 29.2853 201.054 29.681C201.056 31.2259 201.78 32.2134 203.228 32.6434C203.562 32.743 203.927 32.8233 203.993 33.2357C204.07 33.7296 203.562 33.6817 203.332 33.8927L203.33 33.8951Z" fill="white"/>
<path d="M187.162 30.3235C187.191 25.0915 191.453 23.7619 194.807 24.8325C196.034 25.2246 195.373 26.0782 195.207 26.6513C194.958 27.5109 194.432 26.8287 194.056 26.6525C193.094 26.2005 192.134 25.2569 191.056 25.9751C189.964 26.7028 189.972 28.0576 189.99 29.2457C190.037 32.4036 191.807 33.5137 194.846 32.3628C195.09 32.2705 195.38 31.9144 195.6 32.3052C195.755 32.581 195.54 32.8471 195.31 33.0761C194.124 34.251 191.335 34.7294 189.706 34.0053C187.83 33.1708 187.192 31.5955 187.162 30.3247V30.3235Z" fill="white"/>
<path d="M204.17 34.1853C204.198 34.0031 204.196 33.6746 204.26 33.6602C205.733 33.3413 205.636 32.2263 205.595 31.1125C205.566 30.3153 205.596 29.5156 205.588 28.7172C205.575 27.5231 205.979 26.1407 204.253 25.6947C204.194 25.6792 204.215 25.3483 204.198 25.1648C205.123 25.027 206.076 24.9874 206.965 24.7284C208.161 24.3796 208.418 24.8028 208.358 25.9273C208.276 27.4643 208.305 29.0109 208.349 30.5515C208.385 31.8343 207.747 33.4228 210.108 33.7873C209.974 33.9204 209.838 34.0522 209.701 34.1853C207.857 34.1853 206.013 34.1853 204.168 34.1853H204.17Z" fill="white"/>
<path d="M148.785 51.84C151.214 51.1183 150.407 49.2241 150.355 47.7506C150.302 46.2856 151.351 44.3122 148.696 43.5701C150.081 42.8435 151.366 42.8531 152.575 42.6098C153.31 42.4611 153.15 43.1133 153.154 43.5221C153.168 45.2701 153.146 47.0181 153.166 48.7661C153.18 49.9925 152.648 51.4828 155.003 51.7201C153.434 52.2824 150.198 52.2944 148.786 51.84H148.785Z" fill="white"/>
<path d="M206.819 22.5463C205.812 22.4612 205.141 21.9769 205.176 20.9746C205.213 19.9064 205.923 19.4016 206.971 19.47C207.955 19.5335 208.529 20.0622 208.479 21.0945C208.426 22.1579 207.711 22.4924 206.819 22.5463Z" fill="white"/>
<path d="M151.639 40.531C150.632 40.4459 149.962 39.9615 149.996 38.9592C150.033 37.891 150.744 37.3863 151.792 37.4534C152.775 37.517 153.35 38.0457 153.3 39.0779C153.247 40.1425 152.532 40.4758 151.639 40.531Z" fill="white"/>
<path d="M46.7129 39.9375C35.6577 35.4033 24.6013 30.8691 13.5473 26.3325C13.0912 26.1454 12.6436 25.938 11.9751 25.6443C16.2141 23.9071 20.2668 22.2454 24.3208 20.585C31.2946 17.728 38.2744 14.8866 45.2339 11.9949C46.1793 11.6016 46.9648 11.6244 47.8995 12.0249C51.9546 13.7609 56.042 15.4237 60.1174 17.113C60.1461 17.8898 59.4477 17.8934 59.0096 18.0697C55.9322 19.3129 52.875 20.6101 49.7677 21.7767C48.8461 21.9205 48.1657 21.1293 47.2811 21.1281C45.3938 21.4326 43.7692 22.4325 42.0454 23.159C40.0554 23.997 38.038 24.7775 35.9072 25.7714C39.6245 27.2784 43.1162 28.789 46.6676 30.1545C46.9469 30.2612 47.2322 30.344 47.5318 30.2289C48.2719 30.0155 48.8939 29.5095 49.6567 29.3561C52.3593 28.4845 54.9247 27.2916 57.447 26.0016C57.6571 25.8937 58.069 25.7162 57.9377 25.5292C56.6615 23.7141 58.6754 24.1361 59.2341 23.6146C59.6316 23.2441 60.2272 23.2165 60.7608 23.1194C62.863 22.2754 64.9771 21.4601 67.059 20.5694C67.7526 20.272 68.3196 20.296 69.0096 20.5814C73.2892 22.3509 77.589 24.0713 81.8829 25.8085C81.9509 26.5902 81.2693 26.6358 80.8181 26.818C70.0338 31.1868 59.2317 35.5124 48.4319 39.8452C47.8744 40.0694 47.3038 40.2708 46.7117 39.9375H46.7129Z" fill="white"/>
<path d="M94.3742 40.2227C89.6386 42.4418 84.7145 44.1994 79.8762 46.1656C68.932 50.6135 57.9639 55.0026 47.0054 59.4158C31.402 53.0628 15.7975 46.7099 0.18335 40.3533C0.340923 39.7179 0.874525 39.7467 1.24578 39.5992C4.3304 38.374 7.44367 37.2182 10.508 35.945C11.4176 35.5674 12.1578 35.6081 13.0423 35.9618C23.9997 40.3342 34.9689 44.6742 45.937 49.0189C46.165 49.1101 46.4073 49.1664 46.6425 49.2395C47.2394 49.4278 47.6954 49.0345 48.1848 48.8367C58.8282 44.5327 69.4776 40.2418 80.103 35.8923C80.7715 35.6189 81.4161 35.1417 82.2171 35.3683C86.2687 36.9868 90.3214 38.6042 94.373 40.2227H94.3742Z" fill="white"/>
<path d="M82.2172 35.3686C75.685 38.0541 69.1576 40.7528 62.6183 43.4215C57.8171 45.3817 53.0016 47.3084 48.1884 49.2398C47.687 49.4412 47.1546 50.0047 46.6413 49.2398C46.7607 49.036 46.9815 48.8322 46.9839 48.6271C47.0078 45.9572 47.0078 43.2861 46.9887 40.6161C46.9875 40.3895 46.8085 40.1642 46.713 39.9388C49.375 39.3093 51.8078 38.0577 54.3314 37.059C63.2116 33.5427 72.068 29.964 80.9303 26.4008C81.2753 26.2618 81.7194 26.2534 81.8841 25.8086C82.4296 26.1551 82.1969 26.7066 82.2016 27.1669C82.2255 29.9004 82.2172 32.6351 82.2184 35.3686H82.2172Z" fill="#D6D7E8"/>
<path d="M49.6782 21.5034C52.7282 20.2517 55.7782 19.0013 58.827 17.7485C59.2711 17.5662 59.7844 17.5231 60.1174 17.113C60.7859 17.9451 60.2893 18.9162 60.435 19.8105C60.6128 20.9051 60.0769 22.0729 60.7609 23.1183C59.8656 23.9515 58.6121 24.087 57.5772 24.7752C58.0296 25.0054 58.4546 25.2236 59.0729 25.5389C55.962 27.2557 52.9467 28.7291 49.6985 29.693C49.4192 29.3837 49.2807 29.0085 49.2652 28.6008C49.1911 26.6047 49.1911 24.6085 49.2652 22.6124C49.2807 22.2011 49.4573 21.8427 49.6782 21.5034Z" fill="#D6D7E8"/>
<path d="M150.475 62.0032C150.368 63.1757 149.788 63.8627 148.681 63.8399C147.664 63.8208 147.041 63.1853 147.012 62.1351C146.98 61.0129 147.595 60.3188 148.692 60.296C149.795 60.272 150.363 60.9794 150.475 62.0032Z" fill="white"/>
<path d="M139.684 60.7468C139.758 60.4219 139.587 60.0155 140.048 60.0203C140.425 60.0263 140.675 60.2697 140.684 60.6713C140.694 61.0645 140.457 61.3691 140.108 61.4086C139.524 61.4734 139.822 60.9351 139.684 60.7468Z" fill="white"/>
<path d="M141.199 63.2944C141.212 63.8303 140.843 64.0809 140.361 64.154C139.68 64.2571 139.66 63.8087 139.714 63.31C139.773 62.9383 139.494 62.3437 140.253 62.376C140.829 62.4 141.184 62.7117 141.199 63.2944Z" fill="white"/>
<path d="M181.705 62.5714C181.619 62.7093 181.042 62.7477 180.916 62.6146C180.517 62.1962 180.986 61.8737 181.243 61.3582C181.613 61.8101 181.974 62.1374 181.705 62.5714Z" fill="white"/>
<path d="M47.6178 30.5958C47.5008 30.6642 47.3492 30.8188 47.2716 30.7876C43.2546 29.1739 39.2449 27.5446 34.8507 25.7619C39.2998 24.0834 43.1269 21.959 47.3217 20.7241C47.5987 21.0346 47.7383 21.4099 47.7371 21.8151C47.7324 24.7428 47.9484 27.6741 47.6178 30.597V30.5958Z" fill="#D6D7E8"/>
<path d="M150.475 62.0032C150.368 63.1757 149.788 63.8627 148.681 63.8399C147.664 63.8208 147.041 63.1853 147.012 62.1351C146.98 61.0129 147.595 60.3188 148.692 60.296C149.795 60.272 150.363 60.9794 150.475 62.0032Z" fill="white"/>
<path d="M141.199 63.2944C141.212 63.8303 140.843 64.0809 140.361 64.154C139.68 64.2571 139.66 63.8087 139.714 63.31C139.773 62.9383 139.494 62.3437 140.253 62.376C140.829 62.4 141.184 62.7117 141.199 63.2944Z" fill="white"/>
<path d="M140.684 60.6713C140.694 61.0645 140.457 61.3691 140.108 61.4086C139.524 61.4734 139.822 60.9351 139.684 60.7468C139.758 60.4219 139.587 60.0155 140.048 60.0203C140.425 60.0263 140.675 60.2697 140.684 60.6713Z" fill="white"/>
<path d="M181.705 62.5714C181.619 62.7093 181.042 62.7477 180.916 62.6146C180.517 62.1962 180.986 61.8737 181.243 61.3582C181.613 61.8101 181.974 62.1374 181.705 62.5714Z" fill="white"/>
</svg>
