<svg width="482" height="531" viewBox="0 0 482 531" fill="none" xmlns="http://www.w3.org/2000/svg">
<g clip-path="url(#clip0_76_557)">
<path d="M369.361 214.471C367.863 214.633 366.587 214.694 365.372 214.957C364.603 215.139 363.408 215.544 363.287 216.029C363.125 216.757 363.57 217.85 364.117 218.457C367.802 222.482 371.649 226.366 375.294 230.432C376.164 231.403 376.873 232.82 376.995 234.094C377.906 243.379 378.635 252.685 379.424 261.99C379.681 265.025 381.307 266.542 384.304 266.542C406.637 266.542 428.971 266.542 451.304 266.542C452.236 266.542 453.167 266.542 454.584 266.542C454.078 268.585 453.734 270.325 453.187 272.004C451.466 277.344 450.92 282.746 451.284 288.369C451.669 294.135 451.628 299.92 451.648 305.686C451.648 307.466 452.317 308.396 453.997 309.003C458.593 310.702 463.19 312.442 467.705 314.364C468.798 314.829 469.952 315.881 470.438 316.953C474.144 324.924 477.647 332.975 481.291 340.945C482.101 342.705 482.202 344.324 481.635 346.185C479.064 354.661 476.877 363.258 474.043 371.633C472.483 376.225 469.932 380.514 467.745 384.883C464.587 391.175 461.408 397.466 458.128 403.677C457.176 405.457 457.439 406.731 458.836 408.087C460.922 410.109 462.886 412.254 465.093 414.58C462.825 415.308 461.246 415.086 459.565 413.751C447.903 404.526 436.179 395.342 424.395 386.259C423.2 385.329 421.439 384.722 419.92 384.681C409.472 384.358 399.004 383.912 388.576 384.196C383.433 384.337 378.311 385.915 373.208 387.008C356.18 390.608 339.172 394.31 322.123 397.891C320.544 398.215 319.673 398.963 318.944 400.339C313.477 410.777 307.929 421.175 302.503 431.633C301.754 433.07 300.903 433.495 299.364 433.474C287.641 433.414 275.917 433.373 264.194 433.474C262.513 433.474 261.825 432.645 261.136 431.431C259.172 428.053 259.152 428.073 255.69 429.954C254.374 430.662 253.058 431.37 251.438 432.24C251.296 431.027 251.154 430.116 251.114 429.206C250.263 412.294 249.413 395.403 248.563 378.491C248.401 375.113 248.198 374.931 244.736 374.971C242.61 374.991 239.977 374.465 238.54 375.517C237.123 376.549 236.961 379.26 236.029 381.809C235.401 380.757 234.835 380.089 234.551 379.32C233.073 375.315 231.473 371.33 230.279 367.243C229.489 364.513 228.011 363.016 225.338 362.146C221.532 360.912 221.329 360.709 221.815 356.927C222.483 351.728 221.511 347.196 218.272 342.968C216.166 340.217 214.546 337.102 212.805 334.088C212.116 332.914 210.922 331.235 211.307 330.406C212.177 328.565 213.635 326.805 215.316 325.632C217.887 323.831 220.803 322.496 223.637 321.08C225.075 320.352 225.763 319.381 225.743 317.722C225.662 313.838 225.824 309.954 225.642 306.09C225.581 304.978 224.954 303.642 224.123 302.874C218.758 297.938 213.25 293.184 207.885 288.268C207.216 287.641 206.69 286.407 206.751 285.497C207.52 274.371 208.431 263.265 209.201 252.139C209.322 250.399 209.909 249.671 211.59 249.306C228.213 245.726 244.817 242.064 261.44 238.423C265.105 237.614 265.287 237.371 264.174 233.892C262.291 228.025 260.367 222.159 258.565 216.272C257.998 214.431 257.168 213.278 255.082 213.662C252.329 214.168 251.114 212.732 249.615 210.507C246.416 205.753 246.194 201.262 248.401 196.123C249.919 192.583 250.628 188.699 251.903 185.058C252.248 184.087 253.179 182.995 254.11 182.631C279.683 172.394 305.257 162.179 330.911 152.145C333.361 151.194 336.377 151.761 339.07 151.295C343.181 150.587 346.279 152.185 349.397 154.674C355.998 159.974 362.781 165.031 369.584 170.088C370.92 171.08 371.224 171.929 370.171 173.123C366.486 177.33 366.952 181.538 369.908 185.948C371.224 187.91 372.155 190.136 373.046 192.32C373.33 193.028 373.229 194.161 372.844 194.829C371.629 196.953 370.313 199.037 368.774 200.938C367.316 202.738 367.134 204.539 367.681 206.683C368.329 209.192 368.774 211.72 369.361 214.411V214.471Z" fill="#D78129"/>
<path d="M260.974 235.065C255.953 236.198 251.195 237.29 246.416 238.342C234.349 240.992 222.281 243.642 210.213 246.211C208.715 246.535 207.054 246.515 205.556 246.211C199.036 244.896 192.537 243.501 186.057 241.963C184.296 241.559 183.304 242.024 182.21 243.359C176.055 250.904 169.798 258.349 163.663 265.915C162.752 267.027 161.902 267.23 160.606 266.987C154.774 265.874 148.903 264.903 143.091 263.71C142.16 263.507 141.107 262.536 140.662 261.646C139.589 259.542 138.617 257.317 138.03 255.051C137.361 252.482 135.802 251.552 133.332 251.269C130.74 250.965 128.209 250.176 125.618 250.014C122.844 249.853 121.062 248.699 119.928 246.231C116.02 237.674 111.788 229.279 108.225 220.581C104.965 212.59 101.077 205.105 95.1648 198.773C94.1524 197.701 93.6665 196.649 94.1727 194.991C102.353 168.551 110.411 142.071 118.592 115.631C119.26 113.507 120.758 111.646 121.69 109.582C122.236 108.369 122.783 106.912 122.641 105.658C121.993 100.074 121.163 94.5317 120.272 88.9686C120.049 87.5323 120.191 86.4601 121.588 85.8533C126.326 83.8506 127.764 80.189 126.913 75.3542C126.508 73.1088 127.501 72.1985 129.667 71.6725C134.122 70.5801 138.475 69.0831 142.909 67.9301C144.732 67.4446 145.663 66.5747 146.129 64.6934C147.728 58.2604 149.571 51.868 151.17 45.435C151.636 43.5335 152.547 42.259 154.167 41.1464C160.039 37.1208 165.83 32.9535 171.641 28.8672C172.127 28.5233 172.674 28.2806 173.504 28.0176C171.438 31.7398 173.706 34.4505 175.265 37.3231C175.913 38.4964 176.359 39.8315 177.169 40.8834C180.368 44.9495 180.226 49.0966 178.201 53.6279C176.845 56.6421 175.933 59.8788 175.103 63.075C174.8 64.2079 174.982 65.7453 175.529 66.777C180.874 76.7298 188.123 85.3475 195.149 94.1068C195.756 94.8553 196.708 95.4622 197.619 95.8466C200.251 96.9389 202.904 98.0313 205.617 98.8607C207.601 99.4676 208.249 100.621 208.553 102.563C209.768 110.695 208.229 108.672 216.125 110.614C222.504 112.192 228.963 113.446 235.341 114.963C237.203 115.408 238.479 115.145 239.633 113.527C240.808 111.868 242.265 110.412 243.663 108.793C248.643 111.545 253.523 114.154 258.302 116.946C260.144 118.018 261.724 118.261 263.607 117.148C265.085 116.278 266.725 115.692 268.567 114.842C269.641 117.714 270.471 120.445 271.686 122.994C272.212 124.127 273.346 125.341 274.48 125.766C283.267 128.922 292.116 131.915 300.964 134.869C303.049 135.557 304.953 136.366 306.168 138.308C306.249 138.45 306.39 138.53 306.471 138.672C310.501 145.085 316.636 148.018 323.844 149.212C324.573 149.333 325.282 149.677 326.598 150.102C324.168 151.093 322.305 151.882 320.442 152.61C297.785 161.612 275.148 170.614 252.47 179.556C250.466 180.345 249.312 181.477 248.704 183.622C247.003 189.711 244.958 195.719 243.298 201.828C242.934 203.183 243.197 204.943 243.764 206.258C244.979 209.09 246.72 211.68 247.955 214.492C248.866 216.555 250.162 217.486 252.349 217.101C254.536 216.717 255.548 217.607 256.155 219.772C257.573 224.788 259.274 229.724 260.974 235.065Z" fill="#D6D8E2"/>
<path d="M123.431 290.21C120.859 290.21 118.49 290.21 116.121 290.21C112.902 290.21 112.396 290.898 113.53 293.852C115.575 299.253 117.66 304.634 119.705 310.035C120.09 311.046 120.434 312.078 120.92 313.434C116.567 312.746 112.558 311.977 108.488 311.552C107.152 311.411 105.471 311.775 104.398 312.523C97.9996 317.034 91.6823 321.687 85.4054 326.38C84.0691 327.372 82.915 327.614 81.2951 327.068C77.4885 325.753 73.5605 324.762 69.7539 323.407C67.7898 322.719 66.1295 322.941 64.3274 323.811C56.8357 327.412 49.2833 330.871 41.8321 334.573C39.6656 335.645 37.8433 335.605 35.535 335.079C31.5462 334.169 29.2177 332.085 27.5776 328.302C24.7226 321.707 21.3413 315.335 18.0814 308.922C17.3929 307.547 17.5144 306.677 18.6888 305.686C20.6123 304.047 22.3334 302.166 24.2974 300.547C30.6148 295.349 34.7048 288.572 38.1065 281.289C38.3292 280.824 39.0176 280.46 39.5643 280.318C41.0019 279.914 42.5003 279.651 43.9581 279.327C47.0358 278.639 47.4002 277.547 45.3957 275.241C45.1932 275.018 45.011 274.755 44.768 274.452C45.011 274.27 45.173 274.047 45.335 274.047C50.4577 273.946 52.2395 270.123 54.0213 266.299C54.73 264.762 54.4465 263.69 52.6849 263.245C51.0853 262.82 49.425 262.496 47.8659 261.95C46.6511 261.525 45.5577 260.817 44.2011 260.129C45.6589 257.944 46.9345 256.144 48.1089 254.283C49.4655 252.139 48.7973 250.601 46.3878 251.006C41.1639 251.855 37.985 249.63 35.4945 245.301C34.6643 243.845 32.842 242.894 31.3639 241.862C28.7925 240.041 26.14 238.322 23.3053 236.42C26.0185 233.204 28.5697 230.109 31.1817 227.054C33.1053 224.809 33.2672 223.797 30.6958 222.341C25.5123 219.387 25.1074 214.047 23.528 209.273C23.3458 208.726 23.8722 207.776 24.2974 207.189C30.1491 199.421 36.0007 191.633 41.9536 183.946C43.2697 182.266 43.5329 180.83 42.4598 179.01C41.8523 177.998 41.5486 176.805 40.9412 175.793C36.3247 167.985 36.9726 159.812 39.0784 151.498C42.0953 139.623 45.1122 127.728 48.0279 115.833C48.4734 113.972 49.182 112.637 51.1056 112.111C57.6254 110.351 61.6142 105.415 65.7245 100.58C68.2353 97.6269 70.908 94.815 73.4187 91.8616C74.3704 90.749 75.1398 90.5871 76.4356 91.3154C88.9893 98.2338 101.543 105.112 114.157 111.889C115.899 112.819 115.514 113.831 115.109 115.166C109.197 134.444 103.284 153.703 97.3719 172.981C95.0839 180.466 92.8364 187.971 90.4876 195.436C90.0219 196.953 90.1232 198.126 91.1963 199.36C92.7554 201.14 94.1525 203.082 95.6913 204.883C98.5463 208.201 100.753 211.862 102.414 215.948C105.755 224.222 109.379 232.395 112.983 240.567C113.712 242.226 113.914 243.723 113.125 245.321C111.91 247.789 111.93 250.318 112.679 252.928C113.307 255.133 113.833 257.378 114.157 259.644C115.109 266.501 117.559 272.793 121.487 278.457C123.978 282.038 123.613 285.881 123.37 290.251L123.431 290.21Z" fill="#D78129"/>
<path d="M179.558 350.19C172.876 352.719 173.625 359.536 171.175 364.472C170.993 364.836 172.006 366.171 172.714 366.495C173.565 366.879 174.698 366.657 175.893 366.718C175.893 370.561 176.075 374.263 175.832 377.945C175.65 380.595 176.399 382.132 178.951 383.245C183.668 385.288 188.285 387.594 192.78 390.082C194.926 391.276 196.829 392.995 198.652 394.674C200.11 396.01 201.183 397.709 202.6 399.105C204.139 400.642 204.341 402.2 204.2 404.385C203.977 408.208 202.175 409.988 198.814 411.323C193.225 413.528 187.819 416.219 182.312 418.646C180.51 419.435 179.76 420.548 180.834 422.328C185.653 430.258 183.83 438.552 182.393 446.886C181.36 452.874 180.51 458.903 179.72 464.931C179.578 465.983 179.922 467.257 180.489 468.168C181.988 470.595 183.81 472.8 185.308 475.207C185.896 476.138 186.402 477.453 186.22 478.464C185.086 484.897 185.977 491.007 188.508 496.974C188.71 497.46 188.71 498.026 188.831 498.633C184.903 498.633 181.117 498.411 177.351 498.674C170.608 499.179 164.554 497.52 158.966 493.798C157.326 492.706 155.443 491.998 153.722 491.027C152.244 490.197 151.009 490.4 150.442 491.998C148.619 497.156 144.752 500.17 139.953 502.214C135.721 504.014 132.725 507.069 130.214 510.872C128.776 513.036 126.792 515.059 124.626 516.516C120.738 519.125 118.855 523.191 116.385 526.792C114.886 528.977 113.327 530.009 110.655 530.069C104.803 530.211 98.9715 530.656 92.7554 530.98C92.4112 528.37 91.986 525.842 91.7633 523.293C90.9129 513.178 87.2075 503.792 84.7171 494.081C82.2266 484.351 79.6956 474.641 77.0634 464.951C76.6989 463.616 75.808 462.24 74.7551 461.35C72.1836 459.145 69.4097 457.143 66.656 455.16C65.4411 454.29 64.8742 453.36 65.0564 451.802C65.3601 449.294 65.6031 446.745 65.5423 444.236C65.5221 443.184 64.8944 441.809 64.1047 441.141C62.1002 439.482 59.7717 438.228 57.7267 436.63C56.9775 436.043 56.3093 434.931 56.2283 434C55.9449 430.845 56.0056 427.669 55.8234 424.513C55.7424 423.036 56.2486 422.166 57.5647 421.499C59.1238 420.73 60.6019 419.799 62.1002 418.909C64.4692 417.493 64.5907 416.724 62.7684 414.722C61.1688 412.962 59.6705 411.121 57.9696 409.462C56.5725 408.127 56.8965 407.055 57.7672 405.578C58.6986 404 59.6907 404.405 60.9461 404.87C70.4626 408.329 79.9993 411.748 89.4955 415.248C91.1964 415.875 92.5935 415.814 94.2133 415.025C113.874 405.335 133.555 395.686 153.236 386.016C155.908 384.701 155.807 384.236 154.451 381.707C152.021 377.196 148.538 374.769 143.335 374.91C141.087 374.971 139.811 373.818 138.981 371.714C137.807 368.781 136.471 365.888 134.911 363.137C133.15 360.062 132.563 356.886 132.826 353.386C133.19 348.572 133.292 343.757 133.393 338.922C133.433 337.223 133.879 336.414 135.802 336.333C141.026 336.131 146.23 335.524 151.454 335.443C154.066 335.403 156.739 335.969 159.31 336.576C161.76 337.162 164.048 338.558 166.498 338.943C173.22 339.974 176.197 345.092 179.598 350.15L179.558 350.19Z" fill="#D6D8E2"/>
<path d="M173.969 0C174.415 0.222523 174.496 0.242752 174.557 0.283211C178.647 3.21647 179.153 6.83752 178.141 11.7532C176.764 18.4896 174.678 23.8099 168.057 27.3298C161.821 30.6475 156.334 35.3609 150.603 39.5888C149.632 40.3171 148.801 41.6118 148.477 42.7851C146.615 49.3191 144.873 55.8937 143.193 62.4682C142.828 63.8843 142.14 64.5923 140.763 64.9767C135.802 66.3522 130.902 67.8897 125.942 69.2248C124.2 69.6901 123.309 70.5195 123.552 72.3604C123.593 72.6638 123.512 73.0077 123.552 73.3111C124.443 78.3078 122.904 82.03 118.045 84.1136C116.385 84.8216 116.466 86.2782 116.688 87.7549C117.539 93.4596 118.389 99.1642 119.138 104.889C119.26 105.82 119.078 106.892 118.733 107.782C118.085 109.461 117.033 109.582 115.392 108.692C102.576 101.612 89.6979 94.6733 76.881 87.5728C74.7348 86.3793 73.4591 86.5816 71.8596 88.4832C67.9922 93.0954 63.6794 97.3234 59.9741 102.057C56.8559 106.062 52.5836 107.762 47.9874 109.724C36.6283 91.4569 25.3098 73.2302 13.6875 54.5181C17.9598 54.9834 21.6247 55.5093 25.3098 55.7318C33.8341 56.2173 42.3584 56.5815 50.8828 56.8647C51.8547 56.9051 52.9886 56.2376 53.7985 55.5902C59.4476 50.9982 64.9753 46.2645 70.6447 41.6927C71.4748 41.0251 72.9327 40.6812 73.9856 40.8633C77.8124 41.5308 81.5583 42.5019 85.3649 43.3313C87.9971 43.8977 88.7868 43.4324 88.5235 40.8835C88.2401 38.0312 89.3132 36.1296 91.3987 34.3697C93.9904 32.1849 96.4405 29.7978 98.8297 27.3905C100.004 26.2172 101.118 25.7924 102.555 26.7634C104.317 27.9367 105.633 27.3905 107.152 26.0756C113.287 20.7148 119.523 15.4754 125.759 10.236C126.589 9.54825 127.622 9.04252 128.635 8.67839C134.851 6.55431 141.087 4.47069 147.344 2.46798C148.356 2.14431 149.51 2.04316 150.563 2.18477C156.131 2.93325 161.719 3.68174 167.247 4.67298C169.454 5.07757 170.892 4.63252 171.985 2.6905C172.512 1.73972 173.261 0.93055 173.949 0.0202293L173.969 0Z" fill="#D6D8E2"/>
<path d="M117.194 293.568C119.827 293.568 122.175 293.507 124.524 293.568C126.286 293.629 126.954 292.799 126.954 291.141C126.934 288.207 126.994 285.294 126.913 282.361C126.893 281.532 126.569 280.662 126.185 279.913C125.476 278.497 124.747 277.081 123.836 275.787C118.308 268.079 117.761 258.794 115.635 250.035C115.433 249.205 115.838 248.234 116.02 246.697C116.83 247.769 117.356 248.254 117.599 248.861C118.814 251.916 121.204 252.948 124.261 253.231C127.015 253.494 129.708 254.202 132.461 254.505C134 254.667 134.628 255.436 135.094 256.751C136.005 259.36 136.916 261.99 138.131 264.478C138.596 265.449 139.771 266.501 140.783 266.724C147.769 268.14 154.795 269.313 161.8 270.628C163.319 270.911 164.291 270.487 165.263 269.293C171.459 261.687 177.736 254.141 184.033 246.636C184.539 246.049 185.632 245.463 186.321 245.584C192.82 246.899 199.299 248.356 206.022 249.832C205.779 253.352 205.556 256.71 205.313 260.089C204.625 269.01 203.876 277.911 203.309 286.832C203.248 287.823 203.795 289.178 204.523 289.866C209.828 294.741 215.295 299.435 220.56 304.33C221.471 305.16 222.099 306.657 222.22 307.911C222.463 310.662 222.423 313.454 222.22 316.205C222.159 317.095 221.451 318.187 220.701 318.733C219.385 319.705 217.867 320.493 216.328 321.1C212.542 322.618 210.031 325.409 208.006 328.828C207.156 330.244 207.095 331.316 207.986 332.732C210.942 337.425 213.675 342.24 216.692 346.873C218.15 349.098 218.859 351.303 218.535 353.973C218.312 355.672 218.494 357.432 218.494 359.152C216.287 359.374 215.559 358.201 215.316 356.704C214.911 354.297 213.473 353.71 211.185 353.083C205.293 351.505 200.737 352.719 197.254 357.796C196.87 358.363 196.242 358.747 195.25 359.637C190.714 355.47 185.47 351.849 181.866 347.034C177.472 341.148 172.491 337.385 165.486 334.897C157.69 332.125 150.097 331.963 142.201 332.672C139.528 332.914 136.835 333.036 134.162 333.218C127.501 320.534 121.872 307.466 117.194 293.609V293.568Z" fill="#D6D8E2"/>
<path d="M150.907 383.285C150.118 383.71 149.328 384.175 148.477 384.58C130.214 393.542 111.971 402.503 93.6868 411.384C92.5731 411.93 90.8926 412.072 89.7384 411.667C80.5459 408.491 71.4141 405.133 62.2621 401.815C61.7559 401.633 61.27 401.37 60.4803 401.006C61.6344 399.004 62.6468 397.082 63.8009 395.221C64.7323 393.703 64.5906 392.53 63.234 391.276C57.9291 386.401 52.6646 381.485 47.5014 376.488C46.57 375.578 45.7804 374.182 45.5981 372.908C43.9783 362.206 42.5407 351.465 41.0019 340.743C40.7994 339.388 41.0424 338.619 42.4192 337.972C50.3159 334.31 58.1315 330.487 66.0282 326.825C66.8381 326.441 68.0327 326.481 68.9237 326.724C73.3377 327.978 77.6707 329.495 82.105 330.669C83.2794 330.972 85.0004 330.709 85.9723 330.021C92.5731 325.369 99.0119 320.514 105.572 315.82C106.423 315.214 107.759 314.829 108.792 314.951C112.942 315.456 117.093 316.144 121.204 316.913C121.912 317.034 122.742 317.742 123.087 318.39C125.314 322.759 127.46 327.169 129.505 331.62C130.011 332.712 130.194 334.047 130.153 335.261C129.93 342.685 129.566 350.109 129.363 357.554C129.323 358.686 129.606 359.92 130.092 360.952C132.34 365.827 134.77 370.642 137.017 375.517C137.706 376.994 138.677 377.722 140.216 377.884C141.634 378.046 143.031 378.45 144.448 378.45C147.708 378.471 149.733 380.069 150.907 383.245V383.285Z" fill="#D6D8E2"/>
<path d="M258.099 432.605C259.132 437.338 262.635 436.913 266.117 436.893C276.727 436.792 287.337 436.832 297.967 436.832C298.818 436.832 299.668 436.832 300.883 436.832C300.883 439.503 300.883 441.93 300.883 444.358C300.883 447.837 300.782 451.317 300.924 454.796C300.984 456.637 300.336 457.102 298.595 457.021C290.921 456.597 283.247 456.273 275.593 455.888C262.777 455.241 249.96 454.614 237.163 453.926C235.401 453.825 234.43 454.655 233.923 456.091C232.952 458.943 231.008 459.712 228.214 459.085C227.444 458.903 226.634 458.842 225.845 458.882C220.843 459.226 216.389 457.79 212.157 455.12C210.902 454.331 209.019 454.088 207.48 454.23C201.426 454.837 195.392 455.767 189.338 456.435C187.293 456.657 186.361 457.365 186.442 459.53C186.584 462.928 186.483 466.327 186.483 469.806C183.972 468.39 182.798 466.104 183.203 463.434C184.64 453.987 185.956 444.499 187.637 435.093C188.204 431.896 187.029 429.368 186.037 426.657C184.174 421.559 184.114 421.559 189.014 419.334C194.116 417.008 199.239 414.661 204.382 412.416C205.779 411.809 206.589 410.979 206.65 409.442C206.65 409.199 206.731 408.977 206.812 408.754C208.634 403.07 207.52 398.478 202.985 394.149C199.705 391.033 196.789 387.776 192.476 385.976C188.528 384.337 184.802 382.213 180.955 380.393C179.639 379.765 179.072 378.997 179.153 377.48C179.335 374.243 179.376 370.986 179.416 367.749C179.457 363.703 179.436 363.703 175.124 362.894C177.128 359.678 176.278 355.045 180.874 353.508C181.583 353.265 182.717 353.427 183.304 353.872C186.746 356.542 190.127 359.273 193.428 362.125C195.169 363.622 196.505 363.683 198.024 361.863C199.138 360.527 200.575 359.475 201.689 358.161C203.309 356.239 205.03 355.612 207.662 355.976C210.497 356.36 212.44 356.967 212.967 360.123C213.088 360.811 214.162 361.539 214.951 361.863C218.09 363.177 221.349 364.229 224.447 365.605C225.46 366.05 226.513 367.082 226.918 368.093C228.659 372.503 230.178 377.014 231.757 381.485C232.587 383.832 235.442 385.672 237.831 385.146C238.398 385.025 238.965 384.378 239.289 383.832C239.633 383.245 239.674 382.476 239.856 381.788C240.504 379.307 242.266 378.248 245.141 378.612C245.282 380.474 245.465 382.416 245.566 384.358C246.396 400.865 247.226 417.392 248.056 433.899C248.198 436.832 249.211 437.399 251.802 436.003C253.807 434.931 255.832 433.839 258.16 432.605H258.099Z" fill="#D6D8E2"/>
<path d="M299.972 460.46C297.765 469.503 286.001 500.778 284.158 501.607C284.158 500.13 284.118 498.835 284.158 497.541C284.219 495.761 283.49 494.972 281.648 494.951C268.264 494.81 254.88 494.587 241.496 494.506C240.666 494.506 239.492 495.154 239.046 495.862C235.685 501.223 232.243 506.563 229.327 512.146C227.748 515.181 227.14 518.721 226.108 522.059C225.784 523.09 225.48 524.142 224.63 525.235C223.455 521.958 222.625 518.498 221.005 515.464C218.231 510.265 214.992 505.309 211.813 500.332C211.469 499.786 210.294 499.584 209.505 499.564C204.605 499.361 199.684 499.2 194.784 499.159C193.266 499.159 192.517 498.633 192.091 497.156C191.302 494.345 190.067 491.634 189.5 488.781C189.054 486.597 189.317 484.25 189.358 481.984C189.459 475.43 189.702 468.876 189.702 462.301C189.702 460.319 190.127 459.55 192.253 459.368C197.214 458.943 202.155 458.114 207.115 457.649C208.512 457.527 210.233 457.709 211.347 458.437C215.255 461.007 219.426 462.22 224.083 462.18C226.371 462.16 228.679 462.301 230.947 462.605C233.255 462.908 234.835 462.22 235.584 460.015C236.373 457.669 237.912 457.244 240.322 457.365C259.051 458.397 277.801 459.267 296.55 460.197C297.643 460.258 298.717 460.339 300.012 460.44L299.972 460.46Z" fill="#D6D8E2"/>
<path d="M37.661 277.203C37.661 272.509 37.661 268.342 37.661 264.155C37.661 261.484 37.256 261.141 34.5833 261.525C31.9309 261.909 29.2784 262.496 26.6057 262.638C24.9251 262.739 23.1635 262.354 21.5235 261.889C21.078 261.768 20.6326 260.513 20.7338 259.846C21.402 254.89 21.1388 255.78 17.6156 253.939C16.8462 253.534 16.0363 253.211 15.2871 252.745C12.1082 250.763 8.68633 249.792 4.92023 250.298C2.63222 250.601 1.19462 249.549 0 247.486C1.94379 246.09 3.80659 244.654 5.79088 243.379C7.45121 242.327 7.73468 241.194 6.84377 239.414C3.8066 233.386 3.84709 233.366 11.0148 228.571C11.9665 229.805 12.9789 231.221 14.133 232.536C18.0813 237.047 22.9611 240.446 28.023 243.561C31.1209 245.463 33.8139 247.708 35.5755 250.904C36.9928 253.474 38.8961 254.768 41.8928 254.242C42.399 254.161 42.9457 254.303 43.8973 254.384C42.9254 255.861 42.156 257.115 41.3259 258.288C40.3337 259.684 40.2932 261.019 41.7916 261.95C44.3225 263.548 46.9548 265.004 49.8097 266.683C49.2833 268.241 48.5746 270.183 45.8006 270.365C44.5655 270.446 43.3304 270.911 42.1155 271.215C39.2201 271.923 38.8556 273.015 40.7387 275.261C40.9411 275.503 41.1234 275.726 41.5688 276.272C40.3337 276.555 39.3416 276.798 37.6812 277.182L37.661 277.203Z" fill="#D6D8E2"/>
</g>
<defs>
<clipPath id="clip0_76_557">
<rect width="482" height="531" fill="white"/>
</clipPath>
</defs>
</svg>
